<?xml version="1.0" standalone="no"?>
<!DOCTYPE svg PUBLIC "-//W3C//DTD SVG 20010904//EN"
 "http://www.w3.org/TR/2001/REC-SVG-20010904/DTD/svg10.dtd">
<svg version="1.0" xmlns="http://www.w3.org/2000/svg"
 width="736.000000pt" height="475.000000pt" viewBox="0 0 736.000000 475.000000"
 preserveAspectRatio="xMidYMid meet">

<g transform="translate(0.000000,475.000000) scale(0.100000,-0.100000)"
fill="#000000" stroke="none">
<path d="M3657 4133 c-10 -10 13 -33 33 -33 28 0 68 -45 76 -85 9 -52 -1 -127
-25 -173 -11 -22 -44 -65 -72 -96 -51 -56 -197 -182 -203 -175 -2 2 -8 94 -15
203 -6 113 -16 205 -22 213 -6 7 -28 13 -48 13 l-36 0 -75 -146 c-88 -171
-155 -280 -163 -267 -3 5 6 80 20 167 20 123 23 163 14 182 -13 29 -55 48 -88
39 -20 -5 -23 -12 -24 -53 -1 -100 -13 -134 -73 -212 -32 -41 -90 -128 -128
-193 -39 -65 -72 -116 -75 -113 -6 6 11 89 60 286 62 254 57 352 -25 413 -41
30 -124 34 -174 9 -78 -40 -132 -117 -175 -249 -20 -65 -24 -70 -36 -53 -7 10
-33 26 -57 35 -83 32 -148 -12 -183 -122 -15 -48 -18 -92 -18 -255 0 -108 -3
-199 -7 -203 -9 -10 -26 51 -39 140 -8 61 -8 128 2 285 8 113 14 209 14 215 0
18 -50 38 -79 31 -63 -16 -93 -147 -83 -363 8 -175 38 -270 110 -347 40 -42
85 -48 117 -16 19 19 20 33 20 213 0 202 8 255 49 335 12 23 23 42 26 42 13 0
27 -53 45 -175 11 -76 23 -141 26 -146 3 -5 21 -9 40 -9 43 0 45 4 79 190 14
80 35 173 46 208 30 90 109 191 150 192 38 0 35 -97 -12 -356 -32 -180 -37
-286 -14 -341 20 -47 41 -62 88 -63 50 0 60 12 177 204 52 86 98 156 101 156
4 0 9 -21 12 -47 6 -54 41 -93 84 -93 40 0 110 79 165 185 46 89 46 89 52 55
12 -82 14 -271 3 -281 -7 -5 -84 -45 -172 -88 -232 -114 -308 -179 -341 -289
-28 -92 24 -196 124 -246 108 -55 308 -9 410 95 91 91 132 217 132 410 0 77 4
120 13 131 6 8 58 50 115 93 56 42 122 100 147 127 133 148 140 342 15 406
-43 21 -90 29 -103 15z m-336 -963 c-22 -140 -107 -247 -225 -284 -68 -21
-117 -8 -173 48 -68 68 -69 144 -3 235 42 58 92 90 260 170 l145 69 3 -86 c2
-48 -2 -116 -7 -152z"/>
<path d="M5225 3913 c-50 -170 -40 -157 -138 -178 -50 -10 -25 -30 32 -27 l53
4 -6 -29 c-40 -191 -50 -483 -21 -580 21 -71 62 -113 110 -113 20 0 45 4 55
10 31 17 61 115 67 221 7 119 1 149 -31 149 -22 0 -23 -4 -29 -87 -7 -93 -29
-189 -46 -206 -8 -8 -15 -7 -23 1 -21 21 -23 340 -3 479 22 158 24 160 82 168
94 12 113 16 113 25 0 6 -36 10 -80 10 -44 0 -80 2 -80 4 0 2 9 48 20 101 27
133 27 135 -15 135 l-34 0 -26 -87z"/>
<path d="M4071 3918 c-86 -42 -151 -181 -173 -372 l-12 -99 -48 -20 c-64 -26
-66 -52 -4 -43 l44 7 7 -78 c3 -43 13 -114 22 -158 8 -44 16 -84 17 -89 0 -4
-15 -14 -34 -21 -19 -6 -35 -17 -34 -23 2 -29 5 -32 27 -32 29 0 209 49 224
62 25 20 2 39 -46 36 l-46 -3 -7 64 c-4 35 -8 111 -10 169 l-3 106 65 16 c47
12 66 21 68 34 4 17 -1 18 -45 12 -26 -4 -58 -10 -71 -13 -23 -5 -23 -5 -17
58 18 169 64 313 111 344 28 18 75 20 92 3 22 -22 12 -50 -33 -99 -49 -52 -57
-85 -27 -112 25 -23 53 -21 93 6 47 31 69 80 69 150 0 51 -4 62 -29 88 -26 26
-36 29 -93 29 -44 0 -76 -6 -107 -22z"/>
<path d="M4310 3697 c-37 -18 -41 -73 -6 -88 54 -25 106 18 83 69 -6 12 -14
22 -18 22 -4 0 -13 2 -21 5 -7 3 -24 -1 -38 -8z"/>
<path d="M4462 3603 c-59 -30 -72 -59 -22 -49 l30 6 0 -199 c0 -195 0 -199
-22 -214 -21 -14 -22 -16 -5 -22 29 -12 162 17 162 35 0 9 -11 16 -27 18 -32
4 -31 0 -19 143 10 114 34 168 91 205 61 41 79 17 34 -48 -31 -44 -27 -84 9
-97 52 -20 107 45 107 124 0 51 -44 95 -95 95 -37 0 -86 -20 -117 -48 -17 -14
-18 -13 -18 11 0 25 -30 67 -48 67 -4 0 -31 -12 -60 -27z"/>
<path d="M4881 3587 c-34 -20 -50 -55 -51 -108 0 -36 9 -60 41 -114 72 -119
102 -191 95 -230 -4 -22 -14 -36 -28 -41 -28 -9 -34 5 -42 99 -7 92 -27 130
-69 135 -83 10 -92 -140 -13 -226 71 -79 199 -76 232 5 28 65 3 143 -94 298
-43 69 -48 96 -23 126 l20 24 1 -37 c0 -47 28 -78 70 -78 41 0 56 30 41 82 -7
21 -22 45 -34 52 -33 22 -117 29 -146 13z"/>
<path d="M4267 3530 c-58 -36 -62 -55 -9 -47 l37 6 -3 -117 c-4 -159 -7 -177
-38 -191 -16 -7 -24 -18 -22 -29 4 -20 52 -19 135 1 37 9 48 16 48 32 0 13 -8
21 -22 23 -23 3 -23 5 -23 162 0 87 -3 165 -6 174 -9 24 -45 19 -97 -14z"/>
<path d="M1608 3253 c-43 -20 -78 -42 -78 -49 0 -7 54 -142 121 -301 66 -158
139 -333 161 -388 49 -122 69 -151 163 -221 94 -70 109 -69 113 10 6 112 -11
170 -137 466 -202 475 -224 520 -254 520 -7 0 -47 -17 -89 -37z m111 -51 l19
-37 -64 -27 -64 -27 -15 29 c-8 16 -15 35 -15 42 0 15 100 69 113 61 4 -2 16
-21 26 -41z m44 -94 c3 -7 64 -152 136 -323 72 -170 131 -314 131 -321 0 -6
-26 -23 -57 -37 -45 -20 -61 -23 -69 -14 -12 13 -274 638 -274 654 0 10 92 51
116 52 7 1 14 -5 17 -11z m286 -764 c2 -45 0 -54 -12 -47 -22 13 -77 61 -77
67 0 7 59 34 76 35 6 1 12 -22 13 -55z"/>
<path d="M4592 2927 c-114 -42 -195 -196 -226 -434 -13 -102 -22 -122 -53
-123 -7 0 -13 12 -13 28 0 73 -44 167 -100 215 -115 99 -303 66 -400 -69 -66
-93 -45 -175 58 -224 l52 -25 0 -58 c0 -88 17 -143 56 -177 61 -53 144 -49
216 10 38 31 108 156 108 192 0 30 19 58 39 58 17 0 20 -11 26 -97 16 -251 78
-382 197 -414 109 -29 188 55 188 200 0 126 -73 218 -202 256 l-58 16 0 52 0
52 123 82 c285 189 356 361 188 450 -50 26 -141 30 -199 10z m174 -71 c25 -25
34 -43 34 -66 0 -46 -56 -145 -109 -192 -51 -45 -185 -138 -199 -138 -5 0 -3
34 4 77 50 287 165 424 270 319z m-657 -240 c70 -37 131 -144 131 -232 0 -43
-21 -54 -113 -60 -99 -7 -105 -1 -73 76 27 68 26 80 -5 80 -35 0 -57 -18 -86
-70 -15 -28 -33 -50 -38 -50 -22 0 -54 32 -65 64 -36 111 140 248 249 192z
m117 -358 c-14 -70 -73 -155 -126 -183 -62 -32 -97 32 -92 167 l2 37 75 3 c41
2 91 4 111 6 37 3 37 3 30 -30z m347 -64 c108 -71 136 -229 57 -317 l-29 -32
-30 29 c-53 50 -78 133 -94 310 l-5 48 31 -6 c18 -4 49 -18 70 -32z"/>
<path d="M2543 2883 c-82 -49 -83 -83 -2 -49 14 6 17 -9 23 -131 4 -76 9 -156
12 -178 l6 -40 -79 0 c-71 0 -83 -3 -115 -27 -83 -63 -116 -211 -66 -300 30
-54 79 -88 130 -88 62 0 93 22 119 86 23 55 24 56 30 28 13 -58 10 -82 -11
-89 -21 -7 -27 -30 -10 -40 5 -3 50 1 100 11 76 13 90 19 90 35 0 14 -7 19
-25 19 -17 0 -26 6 -29 23 -8 33 -44 474 -52 617 -3 69 -10 133 -15 143 -14
25 -37 21 -106 -20z m3 -443 c27 -11 27 -11 21 -90 -4 -59 -13 -96 -34 -143
-37 -78 -59 -102 -80 -86 -41 35 -67 149 -51 225 11 51 58 104 93 104 13 0 36
-5 51 -10z"/>
<path d="M5503 2868 c-6 -7 -61 -101 -123 -208 -62 -107 -172 -294 -244 -415
-72 -121 -135 -228 -139 -239 -5 -14 -2 -25 10 -37 29 -28 226 -159 239 -159
11 0 170 235 274 405 93 150 260 460 260 480 0 33 -82 97 -200 156 -68 34 -65
33 -77 17z m133 -95 c52 -32 96 -66 100 -75 10 -31 -180 -361 -440 -761 l-57
-88 -104 72 c-93 63 -104 73 -94 90 8 15 14 17 29 9 10 -5 23 -10 29 -10 17 0
13 31 -6 47 -17 13 -17 14 5 29 13 10 22 27 22 41 0 20 4 24 18 18 49 -21 86
5 38 26 -32 15 -34 36 -4 41 17 2 22 10 23 33 0 32 -1 32 68 18 37 -7 35 13
-3 35 -34 20 -39 42 -10 49 13 4 20 14 20 30 0 22 3 24 27 18 45 -11 47 -11
50 6 3 10 -7 21 -28 29 l-31 13 26 14 c18 9 26 22 26 39 0 22 3 24 23 18 34
-11 49 -10 54 3 3 7 -7 18 -21 24 -33 15 -33 27 -1 39 22 8 24 13 15 30 -14
26 8 37 40 20 23 -12 50 -7 50 9 0 6 -13 17 -30 26 -35 18 -39 35 -9 35 18 0
20 5 16 26 -6 31 9 39 47 25 22 -9 28 -8 33 6 4 9 2 18 -4 20 -24 8 -46 31
-39 41 12 19 23 15 122 -45z"/>
<path d="M3436 2732 c-3 -5 -26 -70 -52 -143 -52 -150 -109 -269 -130 -269 -8
0 -14 3 -14 8 -1 4 -5 54 -10 111 -14 156 -37 211 -88 211 -27 0 -27 14 -2
-150 5 -36 10 -84 10 -108 0 -59 22 -98 63 -111 62 -21 103 10 159 119 l33 65
3 -140 c3 -144 -3 -230 -17 -253 -7 -11 -28 -10 -116 8 -128 27 -211 23 -280
-10 -109 -53 -112 -167 -7 -262 51 -46 100 -62 176 -56 111 9 196 66 270 178
l46 70 58 0 c119 0 214 78 198 162 -9 47 -56 98 -90 98 -33 0 -33 -5 4 -47 70
-79 4 -173 -121 -173 -34 0 -39 3 -35 18 25 79 35 431 17 612 -6 64 -6 65 -38
68 -17 2 -34 -1 -37 -6z m-133 -706 c32 -7 60 -16 63 -19 12 -12 -33 -85 -86
-139 -66 -68 -119 -87 -184 -68 -79 24 -141 120 -117 182 27 71 146 87 324 44z"/>
<path d="M2875 2631 c-99 -44 -139 -211 -51 -211 35 0 46 20 46 82 0 49 4 63
25 83 30 31 47 31 82 1 26 -22 28 -31 31 -109 l4 -84 -54 4 c-65 6 -113 -22
-141 -80 -18 -35 -18 -39 -3 -62 26 -39 70 -34 128 16 27 23 51 39 54 36 2 -2
1 -30 -2 -61 -6 -47 -11 -60 -30 -68 -27 -13 -31 -26 -9 -34 19 -8 146 14 162
28 19 15 6 28 -29 28 -28 0 -30 2 -25 28 3 15 11 88 18 163 12 128 11 138 -7
175 -13 27 -32 46 -64 62 -53 27 -82 27 -135 3z m101 -269 c7 -4 -12 -26 -48
-55 l-58 -49 0 32 c0 54 66 99 106 72z"/>
<path d="M1315 2432 c-166 -57 -288 -201 -317 -375 -30 -181 79 -397 242 -483
51 -27 63 -29 170 -29 115 0 115 0 200 42 144 70 213 150 255 297 15 49 15 66
5 100 -15 52 -30 69 -102 112 -62 38 -75 61 -64 117 20 103 19 112 -8 144 -20
24 -49 39 -119 62 -107 36 -185 40 -262 13z m191 -33 c164 -43 199 -73 170
-144 -38 -90 -8 -152 101 -209 71 -36 79 -115 24 -233 -52 -109 -151 -186
-296 -228 -171 -50 -341 38 -433 224 -36 72 -37 79 -37 181 0 97 2 110 32 173
57 120 160 208 284 241 70 19 63 19 155 -5z"/>
<path d="M1487 2335 c-20 -14 -40 -37 -43 -52 -6 -23 -1 -32 32 -60 47 -40 57
-40 106 -7 46 32 49 62 11 103 -40 42 -62 45 -106 16z m93 -75 c-17 -31 -49
-35 -77 -9 l-24 24 26 23 26 22 30 -21 c24 -16 27 -24 19 -39z"/>
<path d="M1245 2280 c-11 -12 -32 -28 -47 -36 -15 -8 -33 -24 -39 -36 -16 -30
11 -50 86 -67 53 -12 59 -11 76 6 10 10 24 39 31 66 15 56 3 74 -53 83 -27 5
-38 1 -54 -16z m77 -26 c8 -8 -23 -84 -35 -84 -20 0 -87 23 -87 30 0 4 13 13
30 20 16 7 35 18 41 26 12 14 41 19 51 8z"/>
<path d="M1151 2006 c-15 -17 -25 -98 -17 -130 6 -24 11 -26 62 -26 76 0 94
11 94 60 0 55 -8 68 -51 90 -45 23 -72 25 -88 6z m73 -37 c23 -11 37 -42 28
-67 -2 -7 -22 -12 -45 -12 l-42 0 3 45 c4 48 13 53 56 34z"/>
<path d="M1708 1975 c-28 -16 -52 -70 -46 -107 2 -14 14 -26 31 -33 26 -9 32
-6 63 28 40 44 47 99 15 117 -25 13 -30 12 -63 -5z m44 -51 c-4 -21 -30 -54
-44 -54 -14 0 -9 43 9 62 20 22 39 18 35 -8z"/>
<path d="M1543 1832 c-24 -15 -43 -35 -43 -44 0 -26 31 -86 49 -93 22 -9 95
48 99 78 3 22 -39 87 -56 87 -4 0 -26 -13 -49 -28z m67 -52 c0 -4 -11 -17 -25
-30 l-24 -23 -13 28 c-11 25 -10 29 12 47 23 19 25 19 37 2 7 -10 13 -21 13
-24z"/>
<path d="M1293 1788 c-35 -17 -31 -68 8 -113 17 -19 39 -35 49 -35 37 0 91 88
76 125 -12 31 -89 44 -133 23z m97 -43 c0 -27 -24 -66 -38 -63 -21 4 -56 54
-48 67 11 17 86 14 86 -4z"/>
<path d="M6215 2255 c-5 -2 -27 -6 -47 -10 -70 -11 -101 -52 -123 -157 l-5
-28 -53 30 c-99 56 -178 35 -244 -63 -65 -96 -66 -211 -4 -310 73 -113 286
-186 424 -145 60 18 139 95 173 170 25 54 29 75 29 150 0 82 -2 88 -29 117
-36 38 -108 56 -188 47 l-59 -6 3 41 3 41 71 1 c58 2 78 7 111 29 42 27 62 63
46 78 -9 10 -92 21 -108 15z m54 -51 c-33 -32 -149 -51 -149 -24 0 16 67 40
115 40 45 0 48 -1 34 -16z m-288 -151 c72 -37 77 -38 186 -38 103 0 113 -2
136 -23 30 -28 38 -77 25 -152 -20 -116 -106 -219 -197 -239 -90 -19 -228 18
-315 84 -81 62 -109 191 -62 290 25 54 44 75 91 99 42 22 53 21 136 -21z"/>
<path d="M5825 2010 c-24 -25 -29 -39 -30 -82 0 -67 20 -75 29 -10 4 33 14 56
31 72 14 13 25 29 25 37 0 22 -25 15 -55 -17z"/>
<path d="M3423 1661 c-117 -30 -181 -154 -118 -229 26 -31 70 -47 161 -57 112
-14 179 -89 171 -192 -9 -129 -144 -197 -229 -115 -47 43 -45 106 4 174 10 14
10 20 0 30 -20 20 -76 -13 -97 -57 -22 -48 -15 -105 19 -149 81 -106 280 -101
344 10 19 33 22 51 20 116 -3 66 -7 82 -33 119 -46 66 -98 97 -190 115 -100
20 -125 35 -125 75 0 67 51 119 118 119 45 0 72 -22 102 -80 21 -41 27 -45 54
-34 39 15 2 110 -53 139 -38 19 -106 27 -148 16z"/>
<path d="M3882 1638 c-44 -31 -97 -138 -112 -229 -39 -228 44 -420 180 -419
66 1 105 42 116 124 9 65 -1 96 -31 96 -23 0 -25 -3 -25 -50 0 -52 -19 -112
-39 -124 -23 -15 -51 7 -78 61 -37 78 -43 199 -15 335 33 157 81 219 133 172
14 -13 19 -31 19 -74 0 -64 5 -73 31 -60 28 16 43 73 29 116 -24 72 -138 100
-208 52z"/>
<path d="M4171 1651 c-48 -6 -67 -27 -29 -33 23 -3 23 -4 26 -183 2 -99 0
-235 -3 -302 -7 -115 -8 -122 -28 -125 -12 -2 -23 -11 -25 -21 -3 -16 5 -18
89 -15 96 3 126 18 74 38 -26 10 -26 10 -23 107 l3 98 63 3 63 3 -3 -128 c-3
-125 -3 -127 -27 -133 -32 -7 -37 -26 -12 -40 25 -13 153 -2 163 14 10 15 -11
36 -36 36 l-21 0 6 282 c4 156 7 298 8 315 1 26 6 34 26 39 51 13 19 29 -56
29 -61 0 -74 -3 -77 -17 -2 -11 5 -18 20 -20 23 -3 23 -4 20 -128 -1 -69 -5
-144 -8 -167 l-5 -43 -59 0 c-32 0 -61 4 -64 9 -3 5 -3 86 1 180 6 157 8 171
25 171 10 0 18 7 18 15 0 10 -10 15 -29 15 -16 0 -35 2 -43 3 -7 2 -33 1 -57
-2z"/>
<path d="M3055 1623 c-142 -15 -185 -25 -185 -42 0 -5 12 -11 27 -13 l27 -3
-3 -135 c-1 -74 3 -217 9 -318 10 -146 10 -185 0 -197 -7 -9 -10 -18 -7 -22
10 -9 338 60 353 74 19 19 3 77 -23 81 -15 2 -23 -5 -31 -28 -13 -36 -38 -47
-125 -56 l-64 -6 -7 112 c-3 62 -4 115 -1 118 2 3 33 14 67 26 40 13 63 26 63
36 0 19 -51 25 -101 11 l-37 -10 6 165 c3 91 7 167 8 168 2 2 26 6 53 9 51 5
50 6 99 -57 22 -27 24 -27 40 -12 31 31 17 119 -17 115 -6 -1 -74 -8 -151 -16z"/>
<path d="M4708 1604 c-39 -21 -83 -90 -114 -180 -25 -71 -28 -94 -28 -219 -1
-133 0 -143 27 -195 33 -67 65 -92 127 -98 53 -5 101 15 125 52 50 76 89 247
89 396 1 110 0 118 -29 169 -16 30 -43 63 -60 73 -36 21 -100 23 -137 2z m106
-39 c8 -8 25 -41 37 -72 54 -139 8 -433 -81 -518 -38 -36 -55 -28 -88 42 -25
54 -27 67 -26 183 1 167 35 290 97 358 24 26 40 28 61 7z"/>
<path d="M2395 1593 c-86 -7 -105 -13 -105 -33 0 -16 7 -20 35 -20 l35 0 0
-92 c0 -146 19 -365 41 -463 10 -49 15 -91 11 -93 -27 -9 -46 -31 -36 -42 12
-12 158 12 180 31 20 17 0 37 -30 32 -27 -6 -29 -1 -46 97 -6 36 -13 76 -16
89 -4 18 15 4 73 -57 80 -82 142 -121 196 -122 92 -1 158 92 111 158 -27 40
-44 28 -37 -27 5 -41 2 -52 -16 -70 -23 -23 -51 -27 -84 -10 -24 12 -197 179
-197 190 0 3 33 18 73 33 169 63 229 150 182 264 -47 111 -162 153 -370 135z
m205 -65 c47 -26 72 -62 78 -113 8 -80 -46 -143 -158 -186 -64 -24 -70 -19
-70 66 0 33 -3 103 -6 156 -6 90 -5 97 12 102 32 8 107 -4 144 -25z"/>
<path d="M1855 1564 c-70 -17 -94 -36 -77 -57 7 -8 23 -12 36 -10 l23 5 6
-179 c5 -178 13 -238 64 -465 l26 -117 -24 -20 c-19 -15 -21 -22 -12 -32 9 -9
30 -7 94 12 46 13 92 31 102 40 29 23 13 43 -30 36 -31 -5 -36 -3 -48 26 -17
40 -41 162 -50 248 l-7 66 78 6 c93 6 180 36 217 75 101 106 62 294 -76 361
-36 18 -61 21 -153 20 -60 0 -136 -7 -169 -15z m237 -34 c71 -20 127 -123 115
-211 -12 -90 -86 -148 -194 -152 l-58 -2 -8 160 c-4 88 -5 170 -2 182 5 21 19
26 90 31 11 1 37 -3 57 -8z"/>
<path d="M5195 1536 c-49 -29 -74 -63 -124 -164 -61 -121 -85 -212 -85 -318 0
-72 5 -99 22 -136 57 -117 192 -102 294 34 103 135 160 364 120 480 -23 64
-103 125 -167 127 -11 1 -38 -10 -60 -23z m138 -54 c68 -75 61 -229 -19 -389
-55 -109 -172 -217 -217 -200 -26 10 -38 89 -26 174 23 167 98 339 178 406 38
31 61 34 84 9z"/>
<path d="M5570 1466 c0 -7 10 -20 21 -28 l21 -14 -29 -59 c-29 -58 -162 -368
-218 -507 -15 -37 -25 -75 -23 -84 5 -29 94 -74 249 -125 115 -39 152 -47 171
-40 29 11 56 49 65 91 5 28 3 30 -24 30 -20 0 -39 -10 -59 -31 -24 -26 -35
-30 -64 -26 -50 6 -231 79 -242 97 -14 21 43 169 145 385 112 235 112 235 153
235 26 0 34 4 34 18 0 15 -19 25 -87 46 -100 30 -113 31 -113 12z"/>
</g>
</svg>
